<?xml version="1.0" encoding="UTF-8" standalone="no"?>
<svg
   height="547.94519"
   preserveAspectRatio="xMidYMid"
   width="512"
   viewBox="0 0 56.109589 59.969752"
   version="1.1"
   id="svg2"
   sodipodi:docname="numpy.svg"
   inkscape:version="1.4.2 (ebf0e940d0, 2025-05-08)"
   xmlns:inkscape="http://www.inkscape.org/namespaces/inkscape"
   xmlns:sodipodi="http://sodipodi.sourceforge.net/DTD/sodipodi-0.dtd"
   xmlns="http://www.w3.org/2000/svg"
   xmlns:svg="http://www.w3.org/2000/svg">
  <defs
     id="defs2" />
  <sodipodi:namedview
     id="namedview2"
     pagecolor="#ffffff"
     bordercolor="#000000"
     borderopacity="0.25"
     inkscape:showpageshadow="2"
     inkscape:pageopacity="0.0"
     inkscape:pagecheckerboard="0"
     inkscape:deskcolor="#d1d1d1"
     inkscape:zoom="1.5890411"
     inkscape:cx="174.31896"
     inkscape:cy="522.01292"
     inkscape:window-width="1920"
     inkscape:window-height="1054"
     inkscape:window-x="0"
     inkscape:window-y="0"
     inkscape:window-maximized="0"
     inkscape:current-layer="svg2" />
  <ellipse
     style="fill:#000000;fill-opacity:0.02;stroke-width:0.0240195"
     id="path3"
     cx="28.857267"
     cy="28.678307"
     rx="5.9693756"
     ry="5.9878931" />
  <ellipse
     style="fill:#000000;fill-opacity:0.02;stroke-width:0.0239888"
     id="path4"
     cx="44.022614"
     cy="37.603943"
     rx="4.8652291"
     ry="5.477191" />
  <ellipse
     style="fill:#000000;fill-opacity:0.02;stroke-width:0.0272938"
     id="path5"
     ry="4.9164929"
     rx="6.5781269"
     cy="12.236931"
     cx="28.857267" />
  <path
     d="m 41.983123,40.831123 0.01315,13.264658 -11.770959,5.873972 V 46.710795 Z m 14.126466,-7.089315 v 13.310904 l -10.039452,5.010411 -0.0072,-13.250191 z M 41.96537,23.076603 41.978521,36.202082 30.225096,42.042521 V 28.912658 Z M 56.109589,16.044932 V 29.088 l -10.049534,5.108822 -0.0088,-13.151781 z M 28.435726,14.501918 38.941589,19.804932 28.041644,25.278904 17.734137,20.101918 Z M 13.822466,7.1256986 23.842849,12.183671 13.116712,17.782137 2.8254247,12.613918 Z M 42.466849,7.202411 53.259836,12.613918 43.607233,17.462137 33.079671,12.15189 Z M 28.105863,0 37.822027,4.8712329 28.505644,9.8452603 18.493589,4.7956164 Z"
     fill="#4dabcf"
     id="path1"
     style="stroke-width:0.219178" />
  <path
     d="M 26.069918,28.912658 18.14137,24.926685 v 17.228712 c 0,0 -9.695781,-20.630575 -10.5941919,-22.483726 C 7.4314521,19.432548 6.9547397,19.170192 6.8328767,19.10663 5.0943562,18.193753 0,15.613151 0,15.613151 V 46.051507 L 7.0474521,49.81874 V 33.908603 c 0,0 9.5929859,18.433972 9.6900819,18.635397 0.0971,0.201644 1.060822,2.144438 2.089425,2.82674 1.37052,0.907178 7.244493,4.439452 7.244493,4.439452 z"
     fill="#4d77cf"
     id="path2"
     style="stroke-width:0.219178" />
</svg>
