<?xml version="1.0" encoding="utf-8"?>
<svg version="1.0" width="384px" height="384px" viewBox="0 0 384 384" preserveAspectRatio="xMidYMid meet" xmlns="http://www.w3.org/2000/svg">
  <defs>
    <linearGradient id="lg0" gradientUnits="userSpaceOnUse" x1="70.3125%" y1="8.072917%" x2="70.3125%" y2="15.104167%">
      <stop offset="0" style="stop-color:rgb(146,238,254);"/>
      <stop offset="1" style="stop-color:rgb(89,229,254);"/>
    </linearGradient>
    <linearGradient id="lg1" gradientUnits="userSpaceOnUse" x1="4.6875%" y1="34.114582%" x2="25.260416%" y2="69.53125%">
      <stop offset="0" style="stop-color:rgb(0,204,230);"/>
      <stop offset="1" style="stop-color:rgb(0,130,231);"/>
    </linearGradient>
    <radialGradient id="rg2" gradientUnits="userSpaceOnUse" cx="80.208336%" cy="64.0625%" r="29.947916%">
      <stop offset="0.23" style="stop-color:rgb(0,205,255);"/>
      <stop offset="0.49" style="stop-color:rgb(0,188,250);"/>
      <stop offset="0.77" style="stop-color:rgb(0,171,248);"/>
      <stop offset="1" style="stop-color:rgb(0,152,247);"/>
    </radialGradient>
    <linearGradient id="lg3" gradientUnits="userSpaceOnUse" x1="48.4375%" y1="11.197917%" x2="48.4375%" y2="31.770834%">
      <stop offset="0" style="stop-color:rgb(142,246,253);"/>
      <stop offset="1" style="stop-color:rgb(43,232,255);"/>
    </linearGradient>
    <linearGradient id="lg4" gradientUnits="userSpaceOnUse" x1="29.166666%" y1="45.3125%" x2="50.0%" y2="81.25%">
      <stop offset="0" style="stop-color:rgb(12,244,255);"/>
      <stop offset="0.28" style="stop-color:rgb(4,238,254);"/>
      <stop offset="1" style="stop-color:rgb(0,177,247);"/>
    </linearGradient>
    <linearGradient id="lg5" gradientUnits="userSpaceOnUse" x1="74.739586%" y1="69.270836%" x2="95.3125%" y2="33.854168%">
      <stop offset="0" style="stop-color:rgb(25,100,231);"/>
      <stop offset="1" style="stop-color:rgb(104,132,242);"/>
    </linearGradient>
    <linearGradient id="lg6" gradientUnits="userSpaceOnUse" x1="57.03125%" y1="28.645834%" x2="64.84375%" y2="41.927082%">
      <stop offset="0" style="stop-color:rgb(166,254,255);"/>
      <stop offset="0.53" style="stop-color:rgb(191,253,254);"/>
      <stop offset="1" style="stop-color:rgb(151,237,255);"/>
    </linearGradient>
    <linearGradient id="lg7" gradientUnits="userSpaceOnUse" x1="29.166666%" y1="28.385416%" x2="29.166666%" y2="40.625%">
      <stop offset="0" style="stop-color:rgb(64,250,253);"/>
      <stop offset="1" style="stop-color:rgb(0,224,255);"/>
    </linearGradient>
  </defs>
  <path fill="url(#lg5)" d="M 306 284.1 C 301.6 282.7 297.6 280.2 294.8 277.3 C 290.8 273 267 229.8 267 226.7 C 267 225 267.4 224.2 268.3 224.6 C 269.2 224.9 272 219.6 277 208 C 285.4 188.9 285.6 188.7 292.6 194 C 311.7 208.6 328.7 216.1 346.5 217.6 C 354 218.3 356 219.2 356 222 C 356 223 359.169 218.508 359.569 218.708 C 360.069 218.808 352.1 237.2 345.2 252.6 C 333.4 279.2 332.5 280.9 329.1 282.5 C 325.1 284.5 310.3 285.5 306 284.1 L 306 284.1 Z"/>
  <path fill="url(#lg1)" d="M 56.1 283.3 C 51.7 281.5 51.6 281.4 45.5 267.5 C 42.1 259.8 37.5 249.3 35.2 244.3 L 28.995 229.746 L 35.8 235.2 C 40.5 235.3 51.1 232.8 62.5 228.8 C 65.8 227.7 70.9 226.1 73.8 225.2 C 77.4 224.1 79 223.2 79 222 C 79 221 80 220 81.3 219.7 C 82.5 219.4 87.7 217.4 92.8 215.1 C 97.9 212.8 102.7 211 103.5 211 C 104.3 211 105 210.6 105 210 C 105 209.5 105.6 209 106.3 209 C 107 209 110.686 216.426 111 217.1 C 114.952 225.587 115.7 227.1 117.1 224.9 C 117.7 223.9 118 224.4 118 226.4 C 118 229.8 94.5 271.7 89.6 276.8 C 84.3 282.5 79.6 284.3 69.5 284.7 C 62.7 284.9 59.4 284.6 56.1 283.3 Z"/>
  <path fill="url(#rg2)" d="M307 284 c0 -0.5 -1.3 -1 -3 -1 -2.5 0 -3 -0.4 -3 -2.5 0 -2.2 -0.4 -2.5 -3.5 -2.5 -3.4 0 -3.5 -0.1 -3.5 -3.7 l0 -3.7 3.8 3.6 c4.1 4 8.1 6.2 13 7.3 4.4 0.9 4.3 3.5 -0.3 3.5 -1.9 0 -3.5 -0.4 -3.5 -1z"/>
  <path fill="url(#rg2)" d="M 312.729 282.426 C 312.705 281.662 319.438 281.843 321.9 281 C 323.942 280.301 327.4 278.9 329.5 277.4 C 333.7 274.6 334.5 274.8 333.6 278.5 C 333.1 280.3 332.3 281 330.5 281 C 329 281 328 281.6 328 282.4 C 328 283.9 325 285 320.8 285 C 319 285 312.76 283.426 312.729 282.426 Z"/>
  <path fill="url(#rg2)" d="M 196.4 261.4 C 194 257.1 192.3 255.1 191.4 255.4 C 190.4 255.8 190 255.1 190 253.3 C 190 248.6 212.2 210.3 226.6 190.2 C 234.6 179 236 177.5 238.8 177.2 C 241.5 176.9 242 177.3 242.6 179.6 C 243 181.1 242.9 182.9 242.4 183.6 C 233.6 195.9 227 206.2 227 207.4 C 227 208.2 226.1 210.6 225.1 212.7 C 221.9 218.9 206.2 257.8 205.3 261.8 C 205 263 204.4 264 203.9 264 C 203.4 264 207.872 278.164 207.872 279.264 C 207.872 283.164 200 267.9 196.4 261.4 L 196.4 261.4 Z"/>
  <path fill="url(#rg2)" d="M287 263.5 c0 -4.3 1.4 -4.5 3.5 -0.5 2 3.8 1.9 4 -1 4 -2.2 0 -2.5 -0.4 -2.5 -3.5z"/>
  <path fill="url(#rg2)" d="M 282 254.5 C 282 250.2 283.389 250.138 285.489 254.138 C 287.489 257.938 290.719 262.447 287.819 262.447 C 285.619 262.447 282 257.6 282 254.5 Z"/>
  <path fill="url(#rg2)" d="M 277 245.5 C 277 242.7 276.6 242 275.1 242 C 273 242 272 240.1 272 235.9 C 272 233.7 271.5 233 270 233 C 268.8 233 267.8 232.1 267.4 230.6 C 266.6 227.3 266.349 223.772 267.863 224.227 C 269.29 224.656 282 247.3 282 248.4 C 282 248.7 280.9 249 279.5 249 C 277.3 249 277 248.6 277 245.5 Z"/>
  <path fill="url(#rg2)" d="M 303 283 C 303 282.5 302.1 282 301 282 C 299.9 282 299 281.3 299 280.5 C 299 279.7 298.3 279 297.4 279 C 294.9 279 293 276.4 293 273.1 C 293 269.4 293.776 269.266 295.9 272.3 C 297.672 274.83 303.7 279.6 307.3 280.5 C 311.3 281.5 310.7 284 306.5 284 C 304.6 284 303 283.6 303 283 L 303 283 Z"/>
  <path fill="url(#rg2)" d="M 201.364 268.219 C 200.164 265.419 199.3 262.1 200.7 261.2 C 201.2 260.8 201.9 259.6 202.3 258.5 C 203.4 254.4 218.7 216.6 221.8 210.1 C 222.7 208.2 223.5 205.9 223.5 205 C 223.6 204.2 226 199.9 228.9 195.5 C 231.8 191.1 233 188.9 231.6 190.5 C 230.2 192.2 225.7 198.5 221.8 204.7 C 217.8 210.9 214.2 215.9 213.8 216 C 213.3 216 213 214.4 213 212.5 C 213 209.5 213.3 209 215.5 209 C 217.4 209 218.1 208.3 218.9 205.3 C 219.5 203.2 220 200.7 220 199.8 C 220 198.8 220.5 198 221.1 198 C 222.7 198 224.9 194.9 225 192.8 C 225 191.8 225.5 191 226 191 C 226.6 191 227 190.4 227 189.6 C 227 188.8 227.7 188 228.5 187.6 C 229.3 187.3 230 186.4 230 185.6 C 230 184.9 230.7 184 231.5 183.6 C 232.3 183.3 233 182.6 233 182.1 C 233 180.9 238.6 175 239.7 175 C 240.8 175 245.842 185.08 246.668 187.011 C 246.998 187.783 244.6 187 244.2 187 C 243.8 187 242.7 188.5 241.9 190.3 C 241 192 236.2 201.6 231.2 211.5 C 226.2 221.4 221.8 230.9 221.4 232.5 C 220.5 236.3 213.8 253.2 210.2 260.7 C 206.3 268.8 204.8 271 202.9 271 C 202 271 201.964 269.419 201.364 268.219 Z"/>
  <path fill="url(#rg2)" d="M283 256.5 c0 -4.3 1 -4.4 3.3 -0.6 2.2 3.8 2.2 4.1 -0.8 4.1 -2.2 0 -2.5 -0.4 -2.5 -3.5z"/>
  <path fill="url(#rg2)" d="M 278 247.5 C 278 243.2 279.117 243.032 281.3 246.9 C 285.468 254.285 284.442 252.716 280.5 251 C 278.483 250.122 278 250.6 278 247.5 Z"/>
  <path fill="url(#lg1)" d="M 34.2 239.3 C 32.9 237.8 29.9 232.3 27.5 226.9 L 21.679 213.102 L 28.1 216.7 C 40.1 215.3 91 190.8 91 186.5 C 91 185.4 94.66 181.146 95.16 181.946 C 95.36 182.146 99.3 190.5 102.5 197.8 C 106.13 206.024 107.677 210.711 108.657 212.766 C 109.423 214.373 108.169 214.89 107 214.5 C 106 214.2 101.5 215.6 96.9 217.6 C 92.3 219.6 86.9 221.9 85 222.7 L 81.5 224.1 L 86 223.6 C 91.9 223 89.5 224.4 79.2 227.5 C 75 228.7 68.8 230.7 65.5 231.9 C 59.1 234.1 41.5 239 39 239.3 C 38.2 239.4 37.3 240 37 240.7 C 36.7 241.5 35.7 240.9 34.2 239.3 Z"/>
  <path fill="url(#lg1)" d="M 27 221.8 C 27 220.8 26.4 220 25.7 220 C 24.5 220 22.27 215.053 17.57 204.053 C 17.37 203.653 21.8 203.8 26.5 202.1 C 43 196.1 57.5 188.2 71.5 177.6 C 80 171 82 169.2 82 167.6 C 82 166.7 82.7 166 83.5 166 C 84.3 166 85 165.6 85 165 C 85 164.5 85.6 164 86.3 164 C 87.6 164 96.4 183.3 97.4 188.5 C 98 191.2 97.9 191.3 96.7 189.8 C 95 187.7 94 187.5 94 189.4 C 94 193.2 55.1 212.7 34 219.4 C 31 220.4 28.2 221.7 27.8 222.4 C 27.3 223.1 27 222.9 27 221.8 L 27 221.8 Z"/>
  <path fill="url(#lg4)" d="M78 281.2 c0 -0.4 1.3 -1.5 2.9 -2.5 1.5 -0.9 4.5 -3.3 6.5 -5.4 l3.6 -3.7 0 3.3 c0 3.5 -1.9 6.1 -4.4 6.1 -0.9 0 -1.6 0.7 -1.6 1.5 0 1 -1.1 1.5 -3.5 1.5 -1.9 0 -3.5 -0.4 -3.5 -0.8z"/>
  <path fill="url(#lg1)" d="M 15.3 199.6 L 11.3 190.5 L 14 189.9 C 22.8 188 42.1 177.9 53.1 169.4 C 60.4 163.8 74 150.1 74 148.4 C 74 147.6 74.5 147 75 147 C 75.6 147 76 146.3 76 145.5 C 76 144.7 76.602 144.051 77.3 144 C 77.675 143.973 78.359 144.354 79.455 146.424 C 81.462 150.215 84.757 157.911 88.334 166.7 C 88.485 167.07 90.324 171.102 90.824 172.402 C 91.324 173.702 89.6 172 89 172 C 88.4 172 88 171.3 88 170.5 C 88 169.7 87.3 169 86.5 169 C 85.7 169 85 169.7 85 170.6 C 85 172.2 83 174 74.5 180.6 C 61.6 190.4 45.1 199.6 32.6 204 C 29.8 205 26.2 206.4 24.5 207 C 22.9 207.7 21 208.4 20.4 208.5 C 19.8 208.7 17.5 204.7 15.3 199.6 Z"/>
  <path fill="url(#rg2)" d="M 263.6 354.9 C 252.9 352.4 243.4 344.9 236.9 333.8 C 231.3 324.2 231.2 324 234.8 324 C 236.4 324 240.9 322.5 244.6 320.8 C 252.4 317.2 262.3 316 268.3 317.9 C 272.4 319.3 282.6 328.4 289 336.3 L 293.5 342 L 299 341.4 L 314.659 319.892 C 316.332 317.998 310.372 331.815 301.2 344.3 C 292.6 353.2 276.3 357.9 263.6 354.9 Z"/>
  <path fill="url(#rg2)" d="M306 283 c0 -2.1 1 -2.4 4.8 -1.4 3.6 1 2.7 3.4 -1.3 3.4 -2.8 0 -3.5 -0.4 -3.5 -2z"/>
  <path fill="url(#rg2)" d="M 203.4 274.2 C 200.4 268.6 200.4 268.5 202.2 266.6 C 204.9 263.7 216.6 237.2 218.4 229.8 C 219.5 225.1 239.5 185.1 241.4 183.8 C 242.2 183.2 242.2 183 241.4 183 C 240.8 183 240.3 182.3 240.3 181.5 C 240.3 178.5 242.7 180.1 245.8 185.3 C 248.8 190.2 249.3 194 247 194 C 245.6 194 225.2 236.2 224.5 240.5 C 223.4 247.2 221.9 251 215.3 264.5 C 211.9 271.6 235.349 331.062 235.699 331.668 C 237.222 334.302 206.3 279.5 203.4 274.2 Z"/>
  <path fill="url(#rg2)" d="M296 276.9 l0 -3 3 2.1 c4.4 3.1 4.5 4 0.6 4 -3.3 0 -3.6 -0.2 -3.6 -3.1z"/>
  <path fill="url(#rg2)" d="M 329.235 277.703 C 329.235 277.403 331.6 276.5 333.5 274.5 L 337.058 270.722 L 335.3 274.9 C 334.2 277.6 333.1 279 331.8 279 C 330.8 279 329.235 277.903 329.235 277.703 Z"/>
  <path fill="url(#rg2)" d="M 288 265.5 C 288 261.1 288.9 261.1 291.8 265.5 L 293.931 269.398 L 291 269 C 288.2 269 288 268.7 288 265.5 Z"/>
  <path fill="url(#rg2)" d="M 274 240.5 C 274 236.1 274.9 236.1 277.8 240.5 L 280.035 244.358 L 277 244 C 274.2 244 274 243.7 274 240.5 Z"/>
  <path fill="url(#rg2)" d="M 269 231.5 C 269 227.1 269.9 227.1 272.8 231.5 L 275.399 236.111 L 272 235 C 269.2 235 269 234.7 269 231.5 Z"/>
  <path fill="url(#lg1)" d="M97.5 191.4 c-0.9 -1.4 -1.4 -2.8 -1.2 -3.1 0.3 -0.3 1.3 0.9 2.2 2.6 1.9 3.8 1.4 4.1 -1 0.5z"/>
  <path d="M77.7 338.3 c-0.4 -0.3 -0.7 -1.9 -0.7 -3.5 0 -2.5 0.3 -2.8 3.5 -2.8 3.3 0 3.5 0.2 3.5 3.5 0 3.2 -0.3 3.5 -2.8 3.5 -1.6 0 -3.2 -0.3 -3.5 -0.7z" fill="#00b0e7"/>
  <path fill="url(#lg1)" d="M 13.4 194.1 C 13.8 193.6 13.406 193.443 12.891 193.286 C 11.933 192.995 4.621 176.688 5.56 176.187 C 5.86 175.887 16.9 171.6 24.5 168.7 C 26.2 168 27.7 167.2 28 166.9 C 28.3 166.5 31.4 164.1 35 161.4 C 47.4 152.3 60.9 137.8 62.4 132 C 63.8 126.3 64.6 126.2 69.4 130.9 C 74.2 135.7 78.9 143.5 79.7 148.1 C 80 150.4 79.8 150.9 78.6 150.4 C 77.6 150 77 150.3 77 151.3 C 77 153.1 63.6 166.6 56.1 172.4 C 48.1 178.6 36.8 185.1 27.3 189.1 C 22.2 191.2 19 193.1 19 194 C 19 195.3 18.9 195.3 18 194 C 17.4 193.1 16.7 192.9 16.3 193.5 C 15.3 194.8 12.7 195.4 13.4 194.1 Z"/>
  <path fill="url(#lg4)" d="M101.7 355 c-4.9 -1.3 -13.7 -5.8 -13.7 -7 0 -0.6 1.6 -1 3.5 -1 1.9 0 3.5 0.3 3.5 0.8 0 0.4 4.4 0.6 9.7 0.5 6.9 -0.2 10.5 0.1 12.6 1.2 1.7 0.8 3.6 1.5 4.4 1.5 1.9 0 1.6 2.7 -0.4 3.5 -3 1.1 -15.6 1.5 -19.6 0.5z"/>
  <path fill="url(#rg2)" d="M 296 346.5 C 296 345.4 295.3 345.1 293.7 345.5 C 291.8 346 290.5 345 286.1 339.6 C 279.3 331.2 270.4 323.1 266 321.2 C 264 320.4 260.8 320 258.4 320.3 C 253.6 320.8 242.4 325.7 239.6 328.6 C 237.4 330.7 235.2 331.3 235.4 329.6 C 235.4 329 235.1 328.4 234.6 328.3 C 233.8 328.1 230.9 323.3 221.7 306.8 L 217.9 300 L 221 300 C 223 300 224 300.5 224 301.5 C 224 303.1 225.6 303.6 226.2 302.2 C 226.4 301.8 230.3 298.3 235 294.6 C 243.1 287.9 243.4 287.6 243.1 283.9 C 242.9 280.1 242.9 280 246.2 280 C 249.3 280 249.9 280.7 255 288.6 C 258 293.4 263.5 300 267.1 303.5 C 275.4 311.3 280.9 313.4 289.9 312.4 C 294.2 311.9 296 312.1 296 312.9 C 296 313.5 296.5 314 297.2 314 C 297.8 314 300.5 315.8 303.1 318 C 305.8 320.2 308.9 322 310.3 322 C 311.6 322 313.572 322.233 313.872 322.533 C 312.245 325.599 305.903 338.781 301.003 343.881 C 295.603 349.681 296 348.9 296 346.5 Z"/>
  <path fill="url(#rg2)" d="M 209 283.9 C 205.4 277.7 204.7 274.2 206.6 272.5 C 209 270.3 220.1 245.1 221.1 239.6 C 221.7 236.4 224.1 229.8 226.5 225 C 228.8 220.1 230.5 215.9 230.2 215.6 C 229.9 215.3 230.2 215 230.8 215 C 231.5 215 231.9 214.7 231.8 214.3 C 231.4 213.2 242.564 189.987 244.764 187.587 C 246.564 185.687 246.9 187.8 249.9 192.6 C 252.9 197.4 252.9 197.5 251.1 200.5 C 246.8 207.6 239.9 220.2 235 230 C 230.6 238.7 229.7 241.3 229.9 245.3 C 230.1 250.6 227.9 257.9 222.7 269.2 C 220.8 273.4 218.9 278.2 218.5 279.8 C 218.2 281.5 217.2 283.4 216.4 284.1 C 215.6 284.7 215 286.3 215 287.6 C 215 291.7 212.5 290.2 209 283.9 L 209 283.9 Z"/>
  <path fill="url(#rg2)" d="M 319.1 283.5 C 319.3 282.5 320.6 281.5 321.9 281.3 C 323.3 281.1 324.9 280.5 325.5 280 C 326.2 279.5 327 279.3 327.3 279.7 C 327.7 280 328 279.8 328 279.2 C 328 278.5 328.5 278 329.1 278 C 329.8 278 330.734 277.042 331.6 276.3 C 333.402 274.755 332.9 274.8 333 277.8 C 333.073 279.999 332.4 281.3 331.3 281.7 C 330.3 282.1 329.2 282.8 328.9 283.3 C 328.5 283.8 326.1 284.5 323.5 284.8 C 319.4 285.2 318.8 285.1 319.1 283.5 L 319.1 283.5 Z"/>
  <path fill="url(#rg2)" d="M292 274.9 c0 -0.6 -0.7 -1.7 -1.5 -2.5 -1.5 -1.6 -2.1 -8.4 -0.7 -8.4 0.6 0 2.4 2.5 6.6 9.3 l1.6 2.7 -3 0 c-1.6 0 -3 -0.5 -3 -1.1z"/>
  <path fill="url(#rg2)" d="M 284 258.5 C 284 254.1 284.9 254.1 287.8 258.5 L 290.242 262.614 L 287 262 C 284.2 262 284 261.7 284 258.5 Z"/>
  <path fill="url(#rg2)" d="M 279 249.5 C 279 246.7 278.6 246 277 246 C 275.4 246 275 245.3 275 242.5 C 275 240.6 275.3 239 275.6 239 C 276.5 239 279.9 243.4 280 244.5 C 280 245.1 281.1 247.2 282.5 249.3 L 285.368 253.913 L 282 253 C 279.2 253 279 252.7 279 249.5 Z"/>
  <path fill="url(#rg2)" d="M270 233.5 c0 -4.1 0.5 -4.3 3.1 -1.2 2.5 3.1 2.4 4.7 -0.6 4.7 -2.2 0 -2.5 -0.4 -2.5 -3.5z"/>
  <path fill="url(#rg2)" d="M 290.6 272.4 C 290.3 271.5 290 269.5 290 267.9 C 290 265.7 289.5 265 288 265 C 286.4 265 286 264.3 286 261.4 C 286 258.2 286.2 257.9 287.6 259.1 C 288.5 259.8 289.9 262.1 290.7 264.2 C 291.5 266.3 291.336 268.148 291.936 268.148 C 292.436 268.148 293.8 268.5 293.5 269 C 293.2 269.6 293.3 270 293.8 270 C 294.3 270 295 270.9 295.3 272 C 295.7 273.6 295.3 274 293.5 274 C 292.2 274 290.9 273.3 290.6 272.4 L 290.6 272.4 Z"/>
  <path fill="url(#rg2)" d="M 281 252.3 C 281 248.8 281.1 248.7 282.9 250.4 C 283.9 251.4 284.758 253.067 285.3 254.1 C 286.021 255.475 285.3 256 283.4 256 C 281.3 256 281 255.5 281 252.3 Z"/>
  <path fill="url(#rg2)" d="M276 243.3 c0 -3.6 0 -3.6 1.8 -1.7 1 1 2.1 2.7 2.5 3.7 0.5 1.3 0.1 1.7 -1.8 1.7 -2.2 0 -2.5 -0.4 -2.5 -3.7z"/>
  <path fill="url(#rg2)" d="M271 234.3 c0 -3.6 0 -3.6 1.8 -1.7 1 1 2.1 2.7 2.5 3.7 0.5 1.3 0.1 1.7 -1.8 1.7 -2.2 0 -2.5 -0.4 -2.5 -3.7z"/>
  <path fill="url(#rg2)" d="M 266 226 C 266 223.3 264.39 219.098 267.799 223.968 C 268.366 224.778 269.395 226.512 270.134 227.395 C 270.534 228.795 270.2 229 268.4 229 C 266.4 229 266 228.5 266 226 Z"/>
  <path fill="url(#lg5)" d="M352.6 227.5 c-0.3 -0.8 -0.3 -2.1 0 -2.8 0.8 -2.3 -1.7 -3.4 -9.1 -4.1 -17.8 -1.5 -34.8 -9 -53.9 -23.6 l-4 -3.1 -3.4 5.3 c-1.8 2.9 -3.2 4.8 -3 4.2 0.2 -0.6 5.2 -12.2 11.3 -25.8 8.7 -19.7 11.3 -24.6 12.8 -24.6 1.1 0 4.6 2.9 7.9 6.5 8.1 8.7 18.9 15.8 29.1 19.1 7.5 2.5 9.5 2.7 22.4 2.6 l14.2 -0.2 -1.8 4.3 c-9.5 21.9 -18.4 41.2 -19.6 42.3 -1.7 1.8 -2.2 1.8 -2.9 -0.1z"/>
  <path fill="url(#lg1)" d="M 19.283 182.389 C 18.783 181.689 8.702 182.279 8.302 182.579 C 7.734 182.69 6.853 181.335 5.592 177.332 C 4.901 175.138 1.255 165.93 2.395 165.626 C 3.071 165.446 2.651 166.851 2.416 166.133 C 1.976 164.787 2.801 166.996 2.704 165.758 C 2.221 159.631 5.801 148.179 6.377 147.64 C 8.858 145.315 16 155 16 153.5 C 16 152.8 18.2 150.8 20.8 149.1 C 26.2 145.7 32.1 140.2 37.4 133.7 C 40 130.6 41.1 128.1 41.6 124.2 L 41.083 119.763 C 42.829 118.413 52.083 120.126 51.465 120.632 C 48.124 119.069 56.163 122.04 61.4 124.8 C 63.082 125.687 65.569 127.359 66.529 128.249 C 68.618 130.187 67.807 131.293 66.3 132.8 C 65.6 133.5 65.2 134.6 65.6 135.1 C 66.4 136.4 57.5 147.3 50.3 154 C 38.1 165.2 34.8 168.1 35.6 166.8 C 36.4 165.4 33.5 167.3 31.5 169.5 C 31 170 29.3 171 27.9 171.5 C 13.2 177.2 23.78 181.608 23.58 182.908 C 23.28 184.108 19.883 183.389 19.283 182.389 Z"/>
  <path fill="url(#lg4)" d="M 118.5 354.2 C 117.4 354 116 353.4 115.4 352.9 C 113.8 351.6 102 350.9 98.5 351.9 C 93.2 353.4 82.9 346.3 76.9 337.1 L 74.56 331.731 L 78.3 330.2 C 80.6 328.8 84.6 325.9 87.1 323.8 C 89.7 321.7 92.3 320 92.9 320 C 93.5 320 94 319.3 94 318.5 C 94 317.4 95.1 317 98.3 317 C 108.6 317 120.7 307.3 131 290.8 C 136 282.8 136.8 282 139.7 282 C 141.4 282 143 282.6 143.3 283.3 C 144 285.1 143.1 309.2 141.8 320.7 C 140.6 331.7 141.2 334 145.2 334 C 146.9 334 146.8 334.4 144.1 338.3 C 137.7 347.7 125 355.6 118.5 354.2 Z"/>
  <path fill="url(#rg2)" d="M 310 326.5 C 310 325.3 309.6 325.1 308.3 325.9 C 307 326.6 305.4 325.8 301.1 321.9 C 298.1 319.2 295 317 294.3 317 C 293.6 317 293 316.7 293 316.3 C 293 315.8 290.3 315.7 287 315.8 C 279.5 316.3 272.5 314 267.4 309.5 L 263.5 306.1 L 267.1 306 C 269.1 306 270.9 306.3 271.3 306.6 C 272.1 307.5 284.7 307.4 289.9 306.5 C 292.3 306.1 297.4 304.7 301.2 303.3 C 305.1 302 311.8 300.6 316.2 300.3 L 324.765 297.88 L 322.7 303.1 C 314.1 323.3 310 330.8 310 326.5 L 310 326.5 Z"/>
  <path fill="url(#rg2)" d="M 223 308 C 222.2 307.5 221.9 307 222.4 307 C 223 307 222.5 306.3 221.4 305.5 C 220.4 304.7 220 304 220.5 304 C 221.1 304 221.1 303.7 220.4 303.2 C 218.5 301.9 211.9 289.1 211.5 285.9 C 211.2 283.5 211.6 282.3 212.9 281.3 C 214 280.6 215.1 278.6 215.5 276.9 C 215.9 275.2 217.8 270.4 219.7 266.2 C 225 254.6 226.8 248.5 226.3 243.7 C 225.9 240.2 226.6 237.9 230.5 230 C 237.7 215.2 248.327 192.687 249.527 192.687 C 250.127 192.687 252.8 197.5 254.4 200.5 C 257.1 205.4 259.181 207.718 257.781 209.318 C 256.481 210.918 243.2 229.8 240.2 236 C 237 242.9 234.9 249.7 235.4 252 C 235.6 253.5 238.9 260 242.6 266.6 C 246.3 273.1 250.3 280.3 251.4 282.4 C 252.6 284.6 254.2 287.2 255.1 288.2 C 256 289.2 257.3 291.3 258.1 292.8 C 258.9 294.3 260.1 295.9 260.7 296.3 C 261.4 296.7 262 298.7 262 300.7 C 262 304.3 262 304.3 259.9 302.4 C 258.7 301.4 255.5 296.9 252.6 292.6 C 247.7 285 247.5 284.8 247 287.7 C 246.6 290 244.5 292.3 238 297.5 C 233.3 301.3 228.5 305.4 227.3 306.7 C 224.8 309.3 225 309.3 223 308 Z"/>
  <path fill="url(#rg2)" d="M308.3 285.3 c-2.7 -0.4 -3.3 -0.9 -3.3 -2.8 0 -2.2 0.3 -2.4 2.6 -1.5 1.4 0.6 5.2 1 8.4 1 3.2 0 7 -0.4 8.4 -1 2.3 -0.8 2.6 -0.7 2.6 1.4 0 2 -0.6 2.4 -4.6 3 -4.8 0.6 -8.4 0.6 -14.1 -0.1z"/>
  <path fill="url(#rg2)" d="M297 278 c0 -2.7 -0.3 -3 -3 -3 -2.8 0 -3 -0.3 -3 -3.5 0 -4.4 0.9 -4.4 3.8 0 1.2 1.9 3.8 4.5 5.7 5.7 4.4 2.9 4.4 3.8 0 3.8 -3.2 0 -3.5 -0.2 -3.5 -3z"/>
  <path d="M89 272.4 c0 -1.2 3.4 -6.4 4.2 -6.4 0.4 0 0.8 1.6 0.8 3.5 0 3.1 -0.3 3.5 -2.5 3.5 -1.4 0 -2.5 -0.3 -2.5 -0.6z" fill="#00b2f7"/>
  <path fill="url(#rg2)" d="M285.6 264.4 c-0.3 -0.9 -0.6 -2.9 -0.6 -4.5 0 -2.2 -0.5 -2.9 -1.9 -2.9 -2.1 0 -3.1 -1.9 -3.1 -6.1 0 -2.2 -0.5 -2.9 -2 -2.9 -1.6 0 -2 -0.7 -2 -3.5 0 -1.9 0.4 -3.5 0.8 -3.5 0.8 0 14.2 23.1 14.2 24.4 0 1.4 -4.8 0.5 -5.4 -1z"/>
  <path fill="url(#rg2)" d="M271 235.5 c0 -4.3 1 -4.4 3.3 -0.6 2.2 3.8 2.2 4.1 -0.8 4.1 -2.2 0 -2.5 -0.4 -2.5 -3.5z"/>
  <path fill="url(#rg2)" d="M266 226.3 l0.1 -3.8 2.4 2.8 c3.2 3.6 3.1 4.7 0 4.7 -2.2 0 -2.5 -0.4 -2.5 -3.7z"/>
  <path fill="url(#lg1)" d="M78.8 150.8 c-2.2 -2.2 -2.2 -2.8 -0.4 -2.8 0.7 0 1.6 1 1.9 2.2 0.8 2.8 0.6 2.9 -1.5 0.6z"/>
  <path d="M89.2 271.5 c2.9 -4.4 3.8 -4.4 3.8 0 0 3.2 -0.2 3.5 -3 3.5 l-3 0 2.2 -3.5z" fill="#00c8e6"/>
  <path d="M110 236.5 c0 -1.4 3.2 -6.5 4 -6.5 0.6 0 1 1.6 1 3.5 0 3.1 -0.3 3.5 -2.5 3.5 -1.4 0 -2.5 -0.2 -2.5 -0.5z" fill="#00c8e6"/>
  <path fill="url(#lg1)" d="M 2.193 166.474 C 0.172 149.27 9.272 131.615 23.2 123.9 C 29.674 120.314 45.273 117.999 45.877 119.909 C 46.177 120.609 46.378 122.69 47.178 122.39 C 49.678 121.39 49.1 122 46.7 125.2 C 45.3 127 44.4 129 44.7 129.6 C 45.6 132.1 32.7 146.1 24.5 151.6 C 21.8 153.5 19.5 155.5 19.5 156.2 C 19.5 157.7 18.72 166.749 17.92 165.549 C 17.52 164.949 18.811 166.674 17.911 167.474 C 16.711 168.374 2.52 169.255 2.193 166.474 Z"/>
  <path fill="url(#lg4)" d="M 138.9 335.3 C 138 333.7 137.9 330.7 138.5 324.3 C 139 319.5 139.4 309.8 139.5 302.8 C 139.6 295.8 139.9 289.7 140.3 289.4 C 141.4 288.2 141.1 287 139.7 287 C 139 287 135.8 291 132.7 295.8 C 123.1 310.9 111.2 320 101.3 320 C 97.9 320 97.2 320.3 97.6 321.5 C 98 322.5 97.6 323 96.5 323 C 95.6 323 92.7 324.7 90.1 326.8 C 87.6 328.9 84.1 331.5 82.3 332.5 C 80.6 333.5 79.4 334.9 79.7 335.6 C 80.1 336.6 79.7 336.7 77.7 335.7 C 75.9 334.9 73.9 331.6 70.2 323.4 L 57.67 293.2 C 75.748 296.134 99.082 294.52 99.082 294.52 C 106.982 293.22 100.887 288.031 108.287 290.531 C 116.687 293.431 106.054 300.277 113.254 295.477 C 115.454 293.977 118.32 294.456 119.32 293.856 C 120.42 293.356 122.015 296.083 122.015 295.483 C 122.015 294.883 125.66 297.986 126.56 297.286 C 129.36 294.986 130.5 290.9 146.6 263.4 C 155.2 248.6 166.3 229.9 171.3 221.7 C 180.1 207.6 180.6 207 183.7 207 C 186.8 207 187 207.2 187 210.3 C 187 212 185.8 215.3 184.5 217.5 C 183.1 219.7 182 222.5 182 223.7 C 182 224.8 180.9 228.2 179.5 231.2 C 178.1 234.1 177 237.4 177 238.5 C 177 239.6 176.3 241.9 175.4 243.5 C 172.5 248.9 165.9 268.3 161.7 283.5 C 158.5 295.2 157.6 300.4 157.5 307 L 157.4 315.5 L 151.1 326.6 C 145.9 335.7 144.4 337.6 142.5 337.6 C 141.1 337.6 139.6 336.7 138.9 335.3 Z"/>
  <path fill="url(#rg2)" d="M 266.7 308.6 C 261 304.3 254 294.8 244.8 278.8 C 234.5 260.7 231.8 255.4 231.4 251.9 C 231.1 249.3 234.1 239.6 237.2 233 C 241.2 224.8 252.3 205 253.6 203.9 C 255.4 202.4 255.7 202.8 259.9 210.1 C 262.1 214.2 264.297 217.134 263.397 217.534 C 262.097 217.934 251 234.9 251 236.8 C 251 237.3 249.4 241.1 247.5 245.1 C 245.6 249.2 243.6 255.2 243.1 258.5 C 242.2 264 242.3 264.9 244.8 270 C 246.3 273 248.1 276 248.8 276.8 C 249.4 277.5 250 278.8 250 279.5 C 250 280.8 255.6 283 258.8 283 C 259.4 283 260 283.4 260 283.9 C 260 284.3 263.9 283.9 268.8 282.9 C 273.6 281.9 281.9 280.7 287.4 280.4 C 295.5 279.8 297.4 279.4 297.7 278 C 298.1 276.5 298.38 277.569 303.7 279.3 C 312.958 282.313 325.341 282.853 333.4 276.1 C 336.214 273.742 336.19 273.273 328 291.3 C 322.502 303.401 320 307.4 320 303.9 C 320 302.5 312.1 303.7 303.5 306.6 C 293.3 309.9 285.4 311.3 280.3 310.5 C 277.6 310.1 276 310.2 276.4 310.8 C 276.7 311.3 275.6 311.7 274 311.8 C 272.1 311.8 269.4 310.7 266.7 308.6 Z"/>
  <path fill="url(#rg2)" d="M288.7 270.5 c-0.9 -2 -1.7 -4.9 -1.7 -6.5 0 -2.3 -0.5 -3 -1.9 -3 -2.1 0 -3.1 -1.9 -3.1 -6.1 0 -2.2 -0.5 -2.9 -1.9 -2.9 -2.1 0 -3.1 -1.9 -3.1 -6.1 0 -2.2 -0.5 -2.9 -1.9 -2.9 -2.1 0 -3.1 -1.9 -3.1 -6.1 0 -2.2 -0.5 -2.9 -1.9 -2.9 -1 0 -2.2 -0.7 -2.5 -1.6 -0.9 -2.3 -0.7 -7.4 0.2 -7.4 0.5 0 6.9 11 14.4 24.5 13.4 24 13.6 24.5 10.9 24.5 -2.1 0 -3.1 -0.8 -4.4 -3.5z"/>
  <path d="M111.2 234.3 c3.5 -7.4 4.8 -8.1 4.8 -2.8 0 3.1 -0.3 3.5 -2.6 3.5 -1.4 0 -2.4 -0.3 -2.2 -0.7z" fill="#00bff9"/>
  <path fill="url(#rg2)" d="M248.2 283.8 c-2.7 -4.6 -6.5 -11.1 -8.3 -14.5 -3.3 -6 -3.3 -6.2 -1.5 -8.1 1 -1.2 1.5 -2.5 1.2 -3 -0.7 -1.2 2.6 -11.7 5.7 -17.9 1.5 -2.9 2.7 -5.7 2.7 -6.3 0 -2 10.5 -22.9 11.5 -22.9 0.6 -0.1 2.2 2.1 3.6 4.7 28.9 52.9 33.7 60.5 40.9 64.2 1.9 1.1 3.1 1.9 2.5 2 -0.5 0 -0.3 0.5 0.5 1.1 1.1 0.8 0.8 0.9 -1.5 0.3 -6.5 -1.6 -24.8 0.3 -41 4.1 -5.4 1.3 -6.1 1.2 -7.2 -0.2 -0.7 -0.9 -1.6 -1.4 -1.9 -1 -0.4 0.4 -1.4 0.1 -2.2 -0.6 -1.3 -1 -1.4 -0.9 -0.7 0.3 0.9 1.5 1.7 6 1 6 -0.2 0 -2.6 -3.7 -5.3 -8.2z"/>
  <path fill="url(#lg4)" d="M59.8 285.3 c-2.2 -0.3 -2.8 -1 -2.8 -2.8 0 -2.2 0.2 -2.3 3 -1.3 1.7 0.5 6.2 0.8 9.9 0.6 5.6 -0.3 7.8 -1 12 -3.5 l5.1 -3.2 0 2.9 c0 2 -0.5 3 -1.5 3 -0.8 0 -1.5 0.4 -1.5 1 0 2.6 -15 4.7 -24.2 3.3z"/>
  <path fill="url(#rg2)" d="M309.9 284.1 c0.7 -0.5 0.9 -1.1 0.5 -1.3 -0.5 -0.3 -0.3 -0.3 0.4 -0.1 0.8 0.1 2 0.3 2.8 0.3 0.8 0 1.4 0.5 1.4 1 0 0.6 -1.5 1 -3.2 1 -2.3 0 -2.9 -0.3 -1.9 -0.9z"/>
  <path fill="url(#lg5)" d="M 372.5 187.1 C 373.6 185.2 370.2 184.6 358 184.4 C 347.4 184.3 344.3 183.9 337.3 181.6 C 327 178.3 316.3 171.2 308.2 162.5 L 302.2 156 L 300.1 158.7 L 297.18 163.463 L 298.9 158.9 C 302.2 149.7 309.3 136.5 313.5 132.1 C 322.4 122.6 336.4 117.8 348.8 120 C 370.7 123.8 386 144.7 382.1 165.7 C 380.8 172.7 376.3 184 374.8 184 C 374.2 184 374 184.6 374.3 185.4 C 374.6 186.2 374.2 187.1 373.4 187.4 C 372.6 187.7 372.2 187.6 372.5 187.1 Z"/>
  <path fill="url(#lg4)" d="M 114 301.9 C 111.5 301.5 102.1 300.8 93 300.5 C 83.9 300.2 73.6 299.4 70 298.7 C 66.4 298.1 63 297.7 62.3 297.8 C 61.6 298 60.6 297.1 60 295.9 C 59.3 294.8 61.432 300.703 61.009 300.674 C 60.299 300.625 49.726 276.662 49.159 275.648 C 49.11 275.561 51.5 276.6 54.5 278.5 C 61.6 282.7 68.1 283.7 75.3 281.6 C 84.4 279 88.2 274.4 102.7 249 C 117.4 223 119 220.8 119 226.4 C 119 230.1 118 232 115.9 232 C 114.4 232 114 232.7 114 235.5 C 114 237.9 113.5 239 112.5 239 C 111.7 239 111 239.9 111 240.9 C 111 243.9 109.9 246 108.4 246 C 107.6 246 107 246.9 107 247.9 C 107 250.9 105.9 253 104.4 253 C 103.6 253 103 253.9 103 254.9 C 103 257.9 101.9 260 100.4 260 C 99.6 260 99 261 99 262.4 C 99 264.6 99.4 264.8 107.8 265.4 C 112.6 265.8 120.8 266.7 126 267.5 C 131.3 268.3 137.3 268.7 139.3 268.3 C 142.7 267.8 143.4 267.1 149.1 257.1 C 152.5 251.3 155.6 246.3 156 246 C 156.4 245.7 157 244.5 157.4 243.3 C 157.8 242 158.6 241 159.1 241 C 159.6 241 160 240.4 160 239.6 C 160 238.8 160.6 237.5 161.4 236.8 C 162.1 236 163.1 234.4 163.4 233.2 C 163.8 232 164.6 231 165.1 231 C 165.6 231 166 230.4 166 229.6 C 166 228.8 166.6 227.5 167.4 226.8 C 168.1 226 169.1 224.4 169.4 223.2 C 169.8 222 170.6 221 171.1 221 C 171.6 221 172 220.3 172 219.5 C 172 218.7 172.5 218 173 218 C 173.6 218 174 217.4 174 216.6 C 174 215.8 174.6 214.5 175.3 213.8 C 175.9 213.1 177.3 210.8 178.4 208.8 C 179.4 206.8 181.1 204.2 182.1 203.1 C 183.2 202 184 200.6 184 200 C 184 199.5 184.5 199 185 199 C 185.6 199 186 198.3 186 197.5 C 186 196.7 186.5 196 187 196 C 187.6 196 188 195.3 188 194.5 C 188 193.7 188.5 193 189 193 C 189.6 193 190 192.3 190 191.5 C 190 190.7 190.5 190 191 190 C 191.6 190 192 189.3 192 188.5 C 192 187.6 192.7 186.7 193.5 186.4 C 194.3 186 195 185.2 195 184.4 C 195 183.6 195.5 183 196 183 C 196.6 183 197 182.3 197 181.5 C 197 180.6 197.7 179.7 198.5 179.4 C 199.3 179 200 178.2 200 177.4 C 200 176.6 200.5 176 201 176 C 201.6 176 202 175.4 202 174.6 C 202 173.8 202.8 172.5 203.8 171.8 C 204.7 171.1 206.1 169.4 206.8 168 C 209.9 162.2 214 159 218.5 159 C 220.9 159 221.8 159.6 222.8 161.9 C 224.6 166 229.2 168 233.8 166.8 C 235.9 166.3 239.4 165.6 241.8 165.3 C 245.9 164.7 246 164.8 246 167.7 C 246 169.4 244.676 172.213 243.876 172.813 C 241.576 174.713 223.7 199.7 217.3 210 C 214 215.2 207 227.2 201.8 236.5 C 175.9 282.8 155.654 319.929 154.254 319.929 C 153.854 319.929 146.555 295.302 147.055 294.102 C 147.555 292.802 154.299 285.811 153.899 284.711 C 153.199 282.811 143.467 288.827 145.467 286.227 C 146.267 285.327 159.555 260.761 160.255 257.661 C 160.955 254.761 170.769 231.511 177.569 219.011 C 181.769 211.111 204 204.6 204 204 C 204 203.5 204.5 203 205 203 C 205.6 203 206 202.1 206 201 C 206 199.9 206.4 199 206.9 199 C 208 199 215 184.8 215 182.6 C 215 181.7 215.5 181 216.1 181 C 216.7 181 216.9 180.1 216.5 179 C 216.1 177.9 216.3 177 216.9 177 C 217.5 177 218 176.1 218 174.9 C 218 171.6 225.107 176.741 226.997 177.468 C 228.297 177.968 227.953 212.06 222.663 178.488 C 222.388 176.74 217.242 183.387 216.842 182.287 C 216.342 180.787 227.44 183.045 222.44 189.145 C 207.34 207.545 179 215 152 261.5 C 131.5 296.7 128.4 301.3 125.9 300.7 C 124.9 300.4 124 300.6 124 301.2 C 124 301.7 123.6 301.8 123 301.5 C 122.5 301.2 122 301.4 122 301.9 C 122 303.1 120.5 303.1 114 301.9 Z"/>
  <path fill="url(#lg7)" d="M 113.7 158.9 C 109 156.4 103.2 150.6 100.2 145.1 C 99.974 145.249 97.179 138.747 97.559 138.497 L 109.3 141 L 120.7 141 L 119.9 145.8 C 119.5 148.4 119.1 152.9 119.1 155.8 C 119 158.6 118.7 161 118.3 161 C 117.8 160.9 115.8 160 113.7 158.9 Z"/>
  <path fill="url(#lg4)" d="M 86.1 275.8 C 88 273.9 95.2 262.5 102.1 250.4 C 129.8 202.3 151.6 165.1 156.3 158 C 161.8 149.7 180.9 130.1 188.2 125.1 L 196.011 120.366 L 193 124.7 C 193 126.3 191.4 130.5 189.5 134.1 C 185.5 141.8 182.7 152.4 183.6 157.1 C 184.6 162.1 187.8 167.5 191.1 169.4 C 194 171.1 194.2 171.1 200.3 168.1 C 208 164.3 210.1 163 211.8 160.8 C 212.6 159.7 214.4 159 216.6 159 C 219.8 159 220 159.2 219.9 162.3 C 219.8 164 219.6 164.7 219.3 163.7 C 219.1 162.8 218.5 162 218.1 162 C 214 162 188.2 199.8 161.5 244.5 C 144.4 273.3 141.1 278.6 142.5 274.8 C 143.5 272.3 142.2 270.6 140.5 272 C 139.4 272.9 136.8 272.8 129.8 271.6 C 119.5 269.9 104 268 99.7 268 C 97.8 268 95.8 269.2 93 272.3 C 90.8 274.6 88.7 276.5 88.2 276.5 C 87.8 276.6 86.4 277.2 85.1 277.9 C 83.2 278.9 83.5 278.5 86.1 275.8 L 86.1 275.8 Z"/>
  <path fill="url(#lg4)" d="M199 239 c1.1 -2.2 2.3 -4 2.5 -4 0.3 0 -0.4 1.8 -1.5 4 -1.1 2.2 -2.3 4 -2.5 4 -0.3 0 0.4 -1.8 1.5 -4z"/>
  <path fill="url(#lg4)" d="M204 230 c1.1 -2.2 2.3 -4 2.5 -4 0.3 0 -0.4 1.8 -1.5 4 -1.1 2.2 -2.3 4 -2.5 4 -0.3 0 0.4 -1.8 1.5 -4z"/>
  <path fill="url(#lg4)" d="M 208.1 222.8 C 210.4 218.5 220.4 202.5 223.7 197.9 C 225.5 195.3 227 193 227 192.6 C 227 192.2 228.8 189.5 231 186.6 C 233.2 183.7 235 180.5 235 179.6 C 235 178.7 235.5 178.2 236 178.5 C 236.9 179.1 237.4 177.5 237.3 174.3 C 237.2 173.6 237.7 173 238.2 173 C 239.6 173 242 170.3 241.3 169.6 C 240.3 168.6 238.8 168.9 239.5 170 C 239.9 170.6 238.9 170.7 236.9 170.3 C 234.7 169.9 233.9 170 234.3 170.8 C 234.8 171.4 234.3 171.6 233 171.3 C 230.4 170.6 230.4 168 233 168 C 234.1 168 235 167.6 235 167 C 235 166.5 235.5 166 236.1 166 C 236.7 166 239.8 164.8 243 163.4 C 246.2 162 257.838 156.389 258.374 155.768 C 259.875 154.03 272.821 141.895 250.298 165.282 C 249.371 166.245 240.31 177.29 239.136 178.572 C 235.434 182.617 239.176 177.572 239.1 177.8 C 239 178.2 236.1 182.3 232.6 187 C 225.2 197 218 207.6 212.1 217.8 C 209.7 221.7 207.6 225 207.4 225 C 207.1 225 207.5 224 208.1 222.8 Z"/>
  <path fill="url(#lg7)" d="M 118.3 145.7 C 118.9 144.1 109.4 143.5 107.4 145.1 C 106.3 146 106 145.9 106 144.9 C 106 143.8 105.8 143.8 105.2 144.7 C 104.5 145.7 103.8 145.7 101.7 144.7 C 98.3 143.2 95.659 136.293 96 127.9 C 96.562 114.08 106.158 106.063 112.538 105.498 C 117.185 105.086 121.251 105.458 124.248 108.809 C 127.245 112.16 128.098 113.406 128 118 C 127.923 121.599 127.1 125.1 125.1 129.5 C 123.5 133 121.6 138.3 120.8 141.4 C 120.1 144.5 119.1 147 118.7 147 C 118.2 147 118 146.4 118.3 145.7 Z"/>
  <path fill="url(#lg3)" d="M 150.2 125.8 C 147.8 122.9 145.7 112.2 145.7 103 C 145.6 92.6 147.1 84.2 150.3 76.5 C 152.7 70.6 160.7 58 162.1 58 C 162.6 58 163 59.6 163 61.5 C 163 64.4 162.6 65 160.8 65 C 159.1 65 158.9 65.3 159.8 66.2 C 160.5 66.9 161 68.2 161 69.2 C 161 73.7 181 83.1 194.4 84.9 C 202 86 202.4 85.9 206.6 83.5 C 208.9 82.1 212.2 81 213.9 81 C 216.8 81 217 80.7 217 77.5 C 217 75.2 217.5 74 218.4 74 C 219.1 74 220 72.7 220.4 71 C 220.9 68.5 221.4 68 224 68 C 225.6 68 224.652 57.696 224.652 58.196 C 229.033 57.662 222.361 76.118 211.973 82.907 C 210.773 83.407 217.404 81.561 217.204 82.561 C 216.504 84.961 205.5 92.2 196.2 96 C 175.8 104.5 160.5 114.6 155 123.5 C 152.7 127.3 151.8 127.7 150.2 125.8 Z"/>
  <path d="M219 163.5 c0 -1.8 -2.1 -2 -3.8 -0.3 -0.9 0.9 -1.2 0.5 -1.2 -2 0 -3 0.2 -3.2 3.5 -3.2 3.3 0 3.5 0.2 3.5 3.5 0 1.9 -0.4 3.5 -1 3.5 -0.5 0 -1 -0.7 -1 -1.5z" fill="#59e9fe"/>
  <path fill="url(#lg3)" d="M 193.5 88.3 C 188.6 87.6 181.4 85.9 177.5 84.5 C 167.9 81 158.3 74.8 157.8 71.8 C 157.6 70.5 157 69.5 156.3 69.5 C 155.7 69.5 154.677 71.639 154.277 71.239 C 153.884 70.742 154.498 68.13 154.9 68 C 155.302 67.87 155.712 67.54 155.6 67.1 C 155.488 66.66 156.612 65.132 157.5 63.6 C 158.529 61.825 159.725 60.391 160 60.1 C 160.814 59.238 163.6 56 165.4 56 C 166.4 56 169.1 57.4 171.6 59.1 C 178.7 63.9 188.3 68 195.2 69.1 C 200.7 70 202.7 69.8 211.3 67.5 C 216.6 66.1 222.1 65 223.5 65 C 225.7 65 226 65.4 226 68.6 C 226 70.7 225.6 71.9 225 71.5 C 224.5 71.2 224 71.2 223.9 71.7 C 223.9 72.1 223.7 73.5 223.6 74.8 C 223.4 76.1 220.9 79.5 218 82.3 C 215.1 85.2 213 86.7 213.4 85.7 C 214 84 213.8 84 210.7 85.9 C 205.1 89.4 203 89.7 193.5 88.3 Z"/>
  <path fill="url(#lg0)" d="M 262.5 61 C 251.4 55.5 249.338 39.444 259.3 31.9 C 262.514 29.466 270.886 26.548 273.344 28.564 C 275.844 31.164 275.101 32.572 281.301 32.272 C 281.28 32.099 286.057 35.794 286.5 39.4 C 292.2 54.3 276.8 68.1 262.5 61 Z"/>
  <path fill="url(#lg3)" d="M 190.7 72 C 185.1 71 175 66.5 168.4 61.9 C 164.5 59.2 163.4 58.9 161.9 59.9 C 157.9 62.3 160.3 58.9 166.3 53.5 C 174.9 45.7 186.4 40.1 195.6 39.3 C 213.5 37.8 224.676 48.537 226.819 63.585 C 227.285 66.855 224.884 75 222.89 76.216 C 220.896 77.432 221.155 75.644 221.155 75.044 C 221.155 74.544 222.381 72.522 221.881 73.322 C 221.081 74.522 223 72.9 223 70.9 L 223 68.3 L 213.9 70.6 C 204.5 73.1 199.1 73.4 190.7 72 Z"/>
  <path fill="url(#lg0)" d="M284.6 39.3 c-0.4 -0.5 -4.3 -0.8 -8.6 -0.8 -7.1 0 -8 -0.2 -10.5 -2.7 -1.5 -1.6 -3.7 -2.8 -4.8 -2.8 -3 0 -0.4 -2.6 4.1 -4.1 4.9 -1.6 8.3 -1.4 12.9 0.9 4.5 2.4 7.2 5.1 7.8 8.1 0.4 2.3 0.3 2.5 -0.9 1.4z"/>
  <path fill="url(#lg6)" d="M 222.2 168 C 220.9 166.8 219.4 164.7 218.9 163.3 C 218.1 161.2 213.123 163.717 211.923 164.717 C 210.623 165.817 215 162.8 215 160.4 C 215 158.1 217 155.3 224.2 147.6 C 236.7 134.2 242.1 130 247 130 C 250.5 130 250.8 130.2 251.4 133.8 C 252.9 143 251 155.9 247.6 159.3 C 246.8 160 246.4 161.8 246.7 163.1 C 247.1 165.3 246.6 165.9 242.8 167.4 C 240.4 168.4 235.4 169.4 231.5 169.7 C 225.3 170.1 224.2 169.9 222.2 168 L 222.2 168 Z"/>
  <path fill="url(#lg6)" d="M243.6 165.8 c0.5 -0.7 0.2 -0.9 -0.9 -0.5 -1 0.4 -1.4 0.2 -1.2 -0.6 0.3 -0.7 0.7 -2.4 0.9 -4 0.3 -1.5 1.2 -3.4 2 -4.3 3.3 -3.3 6 -17.4 3.5 -19 -0.6 -0.3 -0.9 -1.5 -0.6 -2.5 0.3 -1.1 0.1 -1.9 -0.3 -1.9 -1.8 0 -11 8.2 -19.8 17.6 l-9.2 9.9 0 -3.6 c0 -4.1 1.5 -5.9 4.7 -5.9 1.8 0 2.3 -0.5 2.3 -2.8 0 -2 1.4 -4.2 5.3 -8 2.9 -2.9 5.5 -5.2 5.8 -5.2 0.3 0 2.6 -1.9 5.1 -4.2 9.6 -8.9 23.1 -15.1 35.6 -16.3 6.7 -0.7 7.2 -0.6 9.6 1.8 2.9 2.9 4.1 6.6 3.2 10.1 -0.3 1.4 -4.3 5.8 -8.8 9.8 -4.6 4 -13 11.9 -18.8 17.5 -5.9 5.7 -12.2 10.8 -14.4 11.7 -4.6 1.9 -4.9 1.9 -4 0.4z"/>
  <path fill="url(#lg6)" d="M190.1 173.1 c-4.1 -1.1 -8.1 -7.2 -9 -13.5 -1.5 -11.3 2.9 -26.6 10.3 -35.4 5.4 -6.3 26 -16.2 40.7 -19.6 21.4 -4.9 40.8 -1.8 51.2 8.2 4.5 4.3 6.7 8.1 6.7 11.6 0 2.6 -2.3 5.6 -4.3 5.6 -0.7 -0.1 -0.2 -0.9 1.1 -1.9 2.7 -2.4 2.8 -5.1 0.2 -8.1 -1.6 -1.9 -2.9 -2.3 -7.5 -2.2 -15.8 0.1 -35 12.4 -54.7 34.9 -9.8 11.1 -18.2 17.7 -25.6 19.9 -4.9 1.5 -5.5 1.5 -9.1 0.5z"/>
</svg>