<svg xmlns="http://www.w3.org/2000/svg" xmlns:xlink="http://www.w3.org/1999/xlink" viewBox="0 0 400 400" width="400" height="400" preserveAspectRatio="xMidYMid meet" style="width: 100%; height: 100%; transform: translate3d(0px, 0px, 0px); content-visibility: visible;"><defs><clipPath id="__lottie_element_2"><rect width="400" height="400" x="0" y="0"></rect></clipPath></defs><g clip-path="url(#__lottie_element_2)"><g transform="matrix(0.6937201023101807,0.11278276890516281,-0.11278276890516281,0.6937201023101807,113.39270782470703,22.137081146240234)" opacity="1" style="display: block;"><g opacity="1" transform="matrix(1,0,0,1,29.481000900268555,40.75699996948242)"><path fill="rgb(255,76,31)" fill-opacity="1" d=" M-24.94700050354004,40.50699996948242 C-24.94700050354004,40.50699996948242 -28.894386291503906,6.702976226806641 -13.326542854309082,-8.869897842407227 C-10.413385391235352,-11.829060554504395 -6.600302219390869,-14.602437019348145 -1.2187182903289795,-20.006729125976562 C3.790541410446167,-24.902538299560547 9.455273628234863,-26.339012145996094 8.42409610748291,-29.86712646484375 C5.915352821350098,-38.721923828125 29.231000900268555,9.329999923706055 -24.94700050354004,40.50699996948242z"></path></g></g><g transform="matrix(0.2142731100320816,-0.20778007805347443,0.20778007805347443,0.2142731100320816,305.8648376464844,101.81062316894531)" opacity="1" style="display: block;"><g opacity="1" transform="matrix(1,0,0,1,29.481000900268555,40.75699996948242)"><path fill="rgb(255,76,31)" fill-opacity="1" d=" M-24.94700050354004,40.50699996948242 C-24.94700050354004,40.50699996948242 -28.894386291503906,6.702976226806641 -13.326542854309082,-8.869897842407227 C-10.413385391235352,-11.829060554504395 -6.600302219390869,-14.602437019348145 -1.2187182903289795,-20.006729125976562 C3.790541410446167,-24.902538299560547 9.455273628234863,-26.339012145996094 8.42409610748291,-29.86712646484375 C5.915352821350098,-38.721923828125 29.231000900268555,9.329999923706055 -24.94700050354004,40.50699996948242z"></path></g></g><g transform="matrix(1,0,0,1,-5.37200927734375,2.11199951171875)" opacity="1" style="display: block;"><g opacity="1" transform="matrix(1,0,0,1,205.3719940185547,199.06900024414062)"><path fill="rgb(255,76,31)" fill-opacity="1" d=" M135.403564453125,-32.79003143310547 C138.10366821289062,-19.24237060546875 131.95225524902344,-7.7239298820495605 122.57820129394531,-4.2856550216674805 C116.26492309570312,-3.9081664085388184 103.9561538696289,1.2313152551651 99.15319061279297,-49.414283752441406 C90.52447509765625,-141.6487274169922 15.795093536376953,-184.30914306640625 -6.637217044830322,-197.9709014892578 C-1.8517054319381714,-176.5787353515625 -4.096551895141602,-161.51449584960938 -8.754881858825684,-140.0299835205078 C-22.008867263793945,-89.45291900634766 -50.01664733886719,-106.24212646484375 -50.01664733886719,-106.24212646484375 C-87.39458465576172,-75.17213439941406 -60.21034622192383,-46.21696090698242 -75.42572784423828,9.98799991607666 C-119.47389221191406,46.090919494628906 -117.61463928222656,-25.349397659301758 -118.0689926147461,-29.94303321838379 C-151.6753692626953,24.07318687438965 -198.64926147460938,56.99387741088867 -113.27168273925781,136.18307495117188 C-113.27168273925781,136.18307495117188 -100.37568664550781,148.59808349609375 -120.98468780517578,144.6460723876953 C-135.68368530273438,141.8320770263672 -142.9149932861328,135.94000244140625 -142.9149932861328,135.94000244140625 C-142.9149932861328,135.94000244140625 -140.11099243164062,171.40699768066406 -36.417999267578125,193.60699462890625 C-34.40599822998047,194.00100708007812 -2.177999973297119,200.11099243164062 34.22200012207031,193.11599731445312 C114.10099792480469,175.83700561523438 128.0469970703125,143.72999572753906 128.0469970703125,143.72999572753906 C128.0469970703125,143.72999572753906 127.79635620117188,147.22271728515625 114.5423583984375,148.51571655273438 C100.30036163330078,149.90872192382812 112.52581787109375,136.6807098388672 112.52581787109375,136.6807098388672 C140.07911682128906,115.57002258300781 145.5426483154297,103.44485473632812 150.54104614257812,78.51700592041016 C160.4384307861328,7.2741217613220215 154.3945770263672,-6.795285224914551 135.403564453125,-32.79003143310547z"></path></g></g><g transform="matrix(0.944966733455658,0,0,0.944966733455658,62.758079528808594,77.00775146484375)" opacity="1" style="display: block;"><g opacity="1" transform="matrix(1,0,0,1,131.10400390625,169.89999389648438)"><path fill="rgb(255,156,69)" fill-opacity="1" d=" M108.60033416748047,63.518741607666016 C126.64408111572266,42.480812072753906 112.54230499267578,8.226764678955078 112.54230499267578,8.226764678955078 C83.25230407714844,22.724763870239258 72.52017211914062,14.02231216430664 69.88446807861328,3.5550994873046875 C67.35305786132812,-7.616881847381592 78.5508804321289,-23.4797306060791 80.30587005615234,-60.555992126464844 C60.89005661010742,-129.4069366455078 28.18547821044922,-155.8544464111328 17.98862648010254,-158.95718383789062 C18.545625686645508,-154.6361846923828 16.439455032348633,-134.04811096191406 15.079455375671387,-128.22412109375 C11.866455078125,-114.43611907958984 1.1719615459442139,-93.1441650390625 -7.194038391113281,-81.54316711425781 C-18.715038299560547,-65.56416320800781 -41.93922424316406,-48.5053825378418 -39.8458251953125,-2.3898370265960693 C-47.0333251953125,75.4521255493164 -101.23065185546875,24.8367919921875 -102.58751678466797,21.74911117553711 C-116.746337890625,42.78127670288086 -117.11079406738281,111.49530029296875 -30.246999740600586,161.95700073242188 C-24.19000244140625,165.50582885742188 -17.363000869750977,167.53599548339844 -10.37600040435791,168.2449951171875 C-2.736999988555908,169.02200317382812 7.834000110626221,169.64999389648438 19.964000701904297,169.13800048828125 C27.506999969482422,168.82000732421875 34.818260192871094,166.68295288085938 41.58845520019531,163.34800720214844 C99.36170959472656,134.5862274169922 128.07008361816406,88.6966781616211 133.1220245361328,72.19654846191406 C129.86282348632812,73.8663101196289 101.02217864990234,88.75019073486328 108.60033416748047,63.518741607666016z"></path></g></g><g transform="matrix(0.991281270980835,0,0,0.991281270980835,130.3843994140625,196.29527282714844)" opacity="1" style="display: block;"><g opacity="1" transform="matrix(1,0,0,1,71.11100006103516,101.10800170898438)"><path fill="rgb(255,221,86)" fill-opacity="1" d=" M61.074546813964844,-30.198585510253906 C60.6955451965332,-29.26058578491211 47.49824142456055,-6.773571491241455 35.87224197387695,-4.668571472167969 C9.056544303894043,-1.8569685220718384 22.935117721557617,-72.1834716796875 19.894432067871094,-100.39551544189453 C-46.210968017578125,-70.16861724853516 -42.27830505371094,-6.7278971672058105 -39.425601959228516,19.227428436279297 C-41.1060791015625,19.54132080078125 -51.92314910888672,22.611785888671875 -66.95514678955078,11.688785552978516 C-67.6658706665039,34.1599235534668 -57.13583755493164,61.64860916137695 -21.270000457763672,94.66799926757812 C-15.924174308776855,98.8044204711914 -9.163000106811523,100.69999694824219 -2.4010000228881836,100.80599975585938 C0.9110000133514404,100.85800170898438 4.413000106811523,100.83599853515625 8.0649995803833,100.71199798583984 C17.027999877929688,100.40799713134766 25.54599952697754,96.5479965209961 31.606000900268555,89.93699645996094 C57.290000915527344,61.91699981689453 72.02603149414062,8.375521659851074 72.02603149414062,8.375521659851074 C72.02603149414062,8.375521659851074 57.2072639465332,24.285947799682617 47.60726547241211,20.897947311401367 C65.69226837158203,0.5039477348327637 61.074546813964844,-30.198585510253906 61.074546813964844,-30.198585510253906z"></path></g></g><g transform="matrix(0.945780873298645,0,0,0.945780873298645,158.91775512695312,271.2224426269531)" opacity="1" style="display: block;"><g opacity="1" transform="matrix(1,0,0,1,46.45199966430664,74.6780014038086)"><path fill="rgb(252,251,204)" fill-opacity="1" d=" M1.8650000095367432,55.659000396728516 C10.937000274658203,55.387001037597656 18.67794418334961,49.95714569091797 23.559999465942383,42.33700180053711 C38.26496887207031,19.88248062133789 43.65303039550781,-13.51632022857666 43.65303039550781,-13.51632022857666 C43.65303039550781,-13.51632022857666 33.67705535888672,-0.21860191226005554 23.132606506347656,-3.4022393226623535 C0.4497862160205841,-12.55000114440918 -1.4340115785598755,-54.97199249267578 -1.4340115785598755,-54.97199249267578 C-1.4340115785598755,-54.97199249267578 -21.709482192993164,-32.7269401550293 -21.827455520629883,-5.7768778800964355 C-29.71471405029297,7.346896648406982 -43.77021789550781,-5.68312406539917 -43.77021789550781,-5.68312406539917 C-44.809661865234375,13.980372428894043 -29.94099998474121,33.25 -18.618000030517578,46.61199951171875 C-13.600000381469727,52.53499984741211 -6.151000022888184,55.88999938964844 1.6089999675750732,55.66699981689453 C1.694000005722046,55.66400146484375 1.7790000438690186,55.6619987487793 1.8650000095367432,55.659000396728516z"></path></g></g></g></svg>
