<?xml version="1.0" encoding="UTF-8" standalone="no"?>
<!-- Created with Inkscape (http://www.inkscape.org/) -->
<svg width="48" height="48" viewBox="0 0 12.7 12.7" version="1.1" id="svg1" inkscape:version="1.3.2 (091e20ef0f, 2023-11-25)" sodipodi:docname="logo.svg" xmlns:inkscape="http://www.inkscape.org/namespaces/inkscape" xmlns:sodipodi="http://sodipodi.sourceforge.net/DTD/sodipodi-0.dtd" xmlns="http://www.w3.org/2000/svg" xmlns:svg="http://www.w3.org/2000/svg"><script xmlns=""/><script xmlns=""/>
  <sodipodi:namedview id="namedview1" pagecolor="#461d1d" bordercolor="#000000" borderopacity="0.25" inkscape:showpageshadow="2" inkscape:pageopacity="0.0" inkscape:pagecheckerboard="0" inkscape:deskcolor="#d1d1d1" inkscape:document-units="mm" inkscape:zoom="8.6524055" inkscape:cx="8.6103223" inkscape:cy="45.189745" inkscape:window-width="1236" inkscape:window-height="1346" inkscape:window-x="0" inkscape:window-y="0" inkscape:window-maximized="1" inkscape:current-layer="layer1"/>
  <defs id="defs1">
    <clipPath clipPathUnits="userSpaceOnUse" id="clipPath10">
      <path style="fill:#fb1ad9;fill-opacity:1;stroke:none;stroke-width:0.499999;stroke-linecap:round;stroke-linejoin:round;stroke-dasharray:none;stroke-opacity:1" d="M 8.9602326,3.511169 C 8.948443,3.3435703 12.027479,0.03532242 12.382173,0.25377122 12.651779,0.41981588 10.214137,4.3029703 10.004643,4.3345968 9.5662856,4.4007733 8.9913412,3.9534002 8.9602326,3.511169 Z" id="path10" sodipodi:nodetypes="ssss"/>
    </clipPath>
  </defs>
  <g inkscape:label="Layer 1" inkscape:groupmode="layer" id="layer1">
    <ellipse style="fill:#ffffff;fill-opacity:1;stroke:none;stroke-width:0.241314;stroke-linecap:round;stroke-linejoin:round" id="path1" cx="6.5419755" cy="6.446146" rx="5.4567842" ry="4.5392175"/>
    <circle style="fill:#000000;fill-opacity:1;stroke:none;stroke-width:0.23489;stroke-linecap:round;stroke-linejoin:round" id="path2" cx="10.17999" cy="5.31988" r="0.66192961"/>
    <circle style="fill:#000000;fill-opacity:1;stroke:none;stroke-width:0.264583;stroke-linecap:round;stroke-linejoin:round" id="path3" cx="7.3248353" cy="5.3921938" r="0.78293723"/>
    <path style="fill:#fb1ad9;fill-opacity:1;stroke:none;stroke-width:0.410598;stroke-linecap:round;stroke-linejoin:round;stroke-dasharray:none;stroke-opacity:1" d="M 5.6262009,2.4446864 C 5.3583585,1.6672534 4.5116953,1.2343045 3.8534049,0.75432062 4.4350826,0.67333122 4.8635015,0.64111062 5.4171617,1.0563111 L 5.0914177,0.55855861 C 5.7071045,0.5394782 6.0593736,0.72545421 6.267469,1.0236617 6.2772861,0.84770993 6.321446,0.68785347 6.5231759,0.60184435 6.8714123,0.74198204 7.097081,0.94513961 7.1793092,1.2220491 7.303171,1.1219182 7.2380136,0.95132627 7.5915274,0.75681141 8.3150422,1.4174569 8.1825485,1.7588971 8.2125706,2.1609394 7.3347381,2.4075178 6.4512561,2.7087591 5.6262009,2.4446864 Z" id="path5" sodipodi:nodetypes="cccccccccc"/>
    <path style="fill:#fb1ad9;fill-opacity:1;stroke:none;stroke-width:0.481359;stroke-linecap:round;stroke-linejoin:round;stroke-dasharray:none;stroke-opacity:1" d="M 2.7032519,5.0442161 C 1.2474098,2.5881023 0.17411521,3.8408157 0.05174204,6.0150314 0.34881397,5.6502949 0.34721456,5.3635054 0.70037777,5.4295064 0.11912408,5.7764889 0.32378222,6.1894433 0.46044883,6.9743923 0.78938442,6.6655245 0.67065787,6.0047955 1.1104149,5.8902806 0.5283219,6.3408666 1.009875,6.8295858 1.1820846,7.1980702 1.7149151,6.5932333 1.3522351,5.6813462 2.7032519,5.0442161 Z" id="path6" sodipodi:nodetypes="ccccccc"/>
    <g inkscape:groupmode="layer" id="layer2" inkscape:label="Layer 2" transform="matrix(1.8900115,0,0,1.9439696,-0.44404245,-8.8518966)">
      <ellipse style="fill:#fb1ad9;fill-opacity:1;stroke:none;stroke-width:0.393663;stroke-linecap:round;stroke-linejoin:round;stroke-dasharray:none;stroke-opacity:1" id="path8" cx="1.14196" cy="9.8895388" rx="0.42041859" ry="0.3935591"/>
      <path style="fill:#ffffff;fill-opacity:1;stroke:none;stroke-width:0.499999;stroke-linecap:round;stroke-linejoin:round;stroke-dasharray:none;stroke-opacity:1" d="M 2.326776,7.7919224 0.78142616,9.6312896 1.4593328,10.160118 2.8215649,8.399048 Z" id="path7"/>
    </g>
    <g inkscape:groupmode="layer" id="layer2-1" inkscape:label="Layer 2" transform="matrix(1.2010396,-0.44537891,0.43065737,1.1613405,-3.0773696,-0.38600375)">
      <ellipse style="fill:#fb1ad9;fill-opacity:1;stroke:none;stroke-width:0.675616;stroke-linecap:round;stroke-linejoin:round;stroke-dasharray:none;stroke-opacity:1" id="path8-2" cx="2.0627129" cy="11.011787" rx="0.72153461" ry="0.67543757"/>
      <path style="fill:#ffffff;fill-opacity:1;stroke:none;stroke-width:0.858113;stroke-linecap:round;stroke-linejoin:round;stroke-dasharray:none;stroke-opacity:1" d="M 4.0961283,7.4117971 1.4439542,10.568572 2.6073971,11.476162 4.9452994,8.4537634 Z" id="path7-7"/>
    </g>
    <g inkscape:groupmode="layer" id="layer2-2" inkscape:label="Layer 2" transform="matrix(1.1995075,0,0,1.2337523,5.9446373,1.3496238)">
      <ellipse style="fill:#fb1ad9;fill-opacity:1;stroke:none;stroke-width:0.670725;stroke-linecap:round;stroke-linejoin:round;stroke-dasharray:none;stroke-opacity:1" id="path8-0" cx="-4.2198558" cy="7.2706709" rx="0.71631122" ry="0.6705479" transform="scale(-1,1)"/>
      <path style="fill:#ffffff;fill-opacity:1;stroke:none;stroke-width:0.851901;stroke-linecap:round;stroke-linejoin:round;stroke-dasharray:none;stroke-opacity:1" d="M 2.2011603,3.6967419 4.8341347,6.8306652 3.6791141,7.7316848 1.3581366,4.7311654 Z" id="path7-2"/>
    </g>
    <g inkscape:groupmode="layer" id="layer2-1-3" inkscape:label="Layer 2" transform="matrix(1.2010396,-0.44537891,0.43065737,1.1613405,2.7025175,3.3964339)">
      <ellipse style="fill:#fb1ad9;fill-opacity:1;stroke:none;stroke-width:0.670911;stroke-linecap:round;stroke-linejoin:round;stroke-dasharray:none;stroke-opacity:1" id="path8-2-7" cx="-6.3435683" cy="4.5190778" rx="0.72682118" ry="0.66121662" transform="matrix(-0.74725724,-0.66453489,-0.63934328,0.76892144,0,0)"/>
      <path style="fill:#ffffff;fill-opacity:1;stroke:none;stroke-width:0.851901;stroke-linecap:round;stroke-linejoin:round;stroke-dasharray:none;stroke-opacity:1" d="M 2.573588,3.6193337 2.5941955,7.7709163 1.1503899,7.6752753 1.2822423,3.8352169 Z" id="path7-7-5"/>
    </g>
    <path style="fill:none;fill-opacity:1;stroke:#000000;stroke-width:0.5;stroke-linecap:round;stroke-linejoin:round;stroke-dasharray:none;stroke-opacity:1" d="m 7.847684,7.8207759 c 0,0 0.3159109,0.490569 1.2223604,0.3160638 0.8400939,-0.1617308 1.0011496,-0.728416 1.0011496,-0.728416" id="path4" sodipodi:nodetypes="csc"/>
    <g inkscape:groupmode="layer" id="layer3" inkscape:label="horncolors" clip-path="url(#clipPath10)" style="display:inline" transform="matrix(1.2055247,0.1647846,0.12946449,1.1051148,-2.4704229,-2.1643375)">
      <rect style="fill:#1a1ffb;fill-opacity:1;stroke:none;stroke-width:0.499999;stroke-linecap:round;stroke-linejoin:round;stroke-dasharray:none;stroke-opacity:1" id="rect9" width="2.8036492" height="1.5401975" x="8.4381771" y="0.66858369" transform="rotate(12.530517)"/>
      <rect style="fill:#fb1ae8;fill-opacity:1;stroke:none;stroke-width:0.499999;stroke-linecap:round;stroke-linejoin:round;stroke-dasharray:none;stroke-opacity:1" id="rect10" width="3.5609517" height="1.5838654" x="8.5557508" y="-0.17803922" transform="rotate(12.530517)"/>
      <rect style="fill:#fb1a1f;fill-opacity:1;stroke:none;stroke-width:0.499999;stroke-linecap:round;stroke-linejoin:round;stroke-dasharray:none;stroke-opacity:1" id="rect11" width="3.0271828" height="1.5892709" x="8.9968681" y="-0.84110242" transform="rotate(12.530517)"/>
      <rect style="fill:#fbd81a;fill-opacity:1;stroke:none;stroke-width:0.499999;stroke-linecap:round;stroke-linejoin:round;stroke-dasharray:none;stroke-opacity:1" id="rect12" width="2.7513239" height="1.4267204" x="9.5507803" y="-1.3833176" transform="rotate(12.530517)"/>
      <rect style="fill:#35fb1a;fill-opacity:1;stroke:none;stroke-width:0.499999;stroke-linecap:round;stroke-linejoin:round;stroke-dasharray:none;stroke-opacity:1" id="rect13" width="2.7027996" height="1.5567946" x="9.9912119" y="-2.1471493" transform="rotate(12.530517)"/>
      <rect style="fill:#1afbe2;fill-opacity:1;stroke:none;stroke-width:0.499999;stroke-linecap:round;stroke-linejoin:round;stroke-dasharray:none;stroke-opacity:1" id="rect14" width="2.275666" height="1.4971633" x="10.854642" y="-2.8432505" transform="rotate(12.530517)"/>
    </g>
  </g>
</svg>